{
    "asset" : {
        "generator" : "Khronos glTF Blender I/O v1.2.75",
        "version" : "2.0"
    },
    "scene" : 0,
    "scenes" : [
        {
            "name" : "Scene",
            "nodes" : [
                0,
                1,
                2,
                3,
                4
            ]
        }
    ],
    "nodes" : [
        {
            "mesh" : 0,
            "name" : "asset_1"
        },
        {
            "mesh" : 1,
            "name" : "asset_2"
        },
        {
            "mesh" : 2,
            "name" : "asset_3"
        },
        {
            "mesh" : 3,
            "name" : "asset_4"
        },
        {
            "mesh" : 4,
            "name" : "asset_5"
        }
    ],
    "meshes" : [
        {
            "name" : "asset_1",
            "primitives" : [
                {
                    "attributes" : {
                        "POSITION" : 0,
                        "NORMAL" : 1
                    },
                    "indices" : 2
                }
            ]
        },
        {
            "name" : "asset_2",
            "primitives" : [
                {
                    "attributes" : {
                        "POSITION" : 3,
                        "NORMAL" : 4
                    },
                    "indices" : 5
                }
            ]
        },
        {
            "name" : "asset_3",
            "primitives" : [
                {
                    "attributes" : {
                        "POSITION" : 6,
                        "NORMAL" : 7
                    },
                    "indices" : 8
                }
            ]
        },
        {
            "name" : "asset_4",
            "primitives" : [
                {
                    "attributes" : {
                        "POSITION" : 9,
                        "NORMAL" : 10
                    },
                    "indices" : 11
                }
            ]
        },
        {
            "name" : "asset_5",
            "primitives" : [
                {
                    "attributes" : {
                        "POSITION" : 12,
                        "NORMAL" : 13
                    },
                    "indices" : 14
                }
            ]
        }
    ],
    "accessors" : [
        {
            "bufferView" : 0,
            "componentType" : 5126,
            "count" : 48,
            "max" : [
                2.220250368118286,
                2.5,
                4.500637054443359
            ],
            "min" : [
                0.10833373665809631,
                0,
                2.4458835124969482
            ],
            "type" : "VEC3"
        },
        {
            "bufferView" : 1,
            "componentType" : 5126,
            "count" : 48,
            "type" : "VEC3"
        },
        {
            "bufferView" : 2,
            "componentType" : 5123,
            "count" : 84,
            "type" : "SCALAR"
        },
        {
            "bufferView" : 3,
            "componentType" : 5126,
            "count" : 78,
            "max" : [
                3.5041663646698,
                2.5,
                4.522670745849609
            ],
            "min" : [
                2.21975040435791,
                0,
                2.362499952316284
            ],
            "type" : "VEC3"
        },
        {
            "bufferView" : 4,
            "componentType" : 5126,
            "count" : 78,
            "type" : "VEC3"
        },
        {
            "bufferView" : 5,
            "componentType" : 5123,
            "count" : 144,
            "type" : "SCALAR"
        },
        {
            "bufferView" : 6,
            "componentType" : 5126,
            "count" : 54,
            "max" : [
                7.3190741539001465,
                2.5,
                4.4921345710754395
            ],
            "min" : [
                3.5041663646698,
                0,
                1.2999645471572876
            ],
            "type" : "VEC3"
        },
        {
            "bufferView" : 7,
            "componentType" : 5126,
            "count" : 54,
            "type" : "VEC3"
        },
        {
            "bufferView" : 8,
            "componentType" : 5123,
            "count" : 96,
            "type" : "SCALAR"
        },
        {
            "bufferView" : 9,
            "componentType" : 5126,
            "count" : 36,
            "max" : [
                3.97499942779541,
                2.5,
                2.362499952316284
            ],
            "min" : [
                0.1083332821726799,
                0,
                0.10000385344028473
            ],
            "type" : "VEC3"
        },
        {
            "bufferView" : 10,
            "componentType" : 5126,
            "count" : 36,
            "type" : "VEC3"
        },
        {
            "bufferView" : 11,
            "componentType" : 5123,
            "count" : 60,
            "type" : "SCALAR"
        },
        {
            "bufferView" : 12,
            "componentType" : 5126,
            "count" : 24,
            "max" : [
                7.320000171661377,
                2.5,
                1.0399999618530273
            ],
            "min" : [
                4.235000133514404,
                0,
                -0.08134984970092773
            ],
            "type" : "VEC3"
        },
        {
            "bufferView" : 13,
            "componentType" : 5126,
            "count" : 24,
            "type" : "VEC3"
        },
        {
            "bufferView" : 14,
            "componentType" : 5123,
            "count" : 36,
            "type" : "SCALAR"
        }
    ],
    "bufferViews" : [
        {
            "buffer" : 0,
            "byteLength" : 576,
            "byteOffset" : 0
        },
        {
            "buffer" : 0,
            "byteLength" : 576,
            "byteOffset" : 576
        },
        {
            "buffer" : 0,
            "byteLength" : 168,
            "byteOffset" : 1152
        },
        {
            "buffer" : 0,
            "byteLength" : 936,
            "byteOffset" : 1320
        },
        {
            "buffer" : 0,
            "byteLength" : 936,
            "byteOffset" : 2256
        },
        {
            "buffer" : 0,
            "byteLength" : 288,
            "byteOffset" : 3192
        },
        {
            "buffer" : 0,
            "byteLength" : 648,
            "byteOffset" : 3480
        },
        {
            "buffer" : 0,
            "byteLength" : 648,
            "byteOffset" : 4128
        },
        {
            "buffer" : 0,
            "byteLength" : 192,
            "byteOffset" : 4776
        },
        {
            "buffer" : 0,
            "byteLength" : 432,
            "byteOffset" : 4968
        },
        {
            "buffer" : 0,
            "byteLength" : 432,
            "byteOffset" : 5400
        },
        {
            "buffer" : 0,
            "byteLength" : 120,
            "byteOffset" : 5832
        },
        {
            "buffer" : 0,
            "byteLength" : 288,
            "byteOffset" : 5952
        },
        {
            "buffer" : 0,
            "byteLength" : 288,
            "byteOffset" : 6240
        },
        {
            "buffer" : 0,
            "byteLength" : 72,
            "byteOffset" : 6528
        }
    ],
    "buffers" : [
        {
            "byteLength" : 6600,
            "uri" : "data:application/octet-stream;base64,"
        }
    ]
}
